<svg xmlns="http://www.w3.org/2000/svg" width="520" height="360"><rect width="520" height="360" rx="16" fill="#fff" stroke="#d0d7de"/><text x="28" y="36" font-family="monospace" font-size="16" font-weight="700" fill="#24292f">Repository language radar</text><text x="28" y="56" font-family="monospace" font-size="9" fill="#57606a">measured from GitHub language bytes</text><circle cx="260" cy="175" r="28.0" fill="none" stroke="#d0d7de"/><circle cx="260" cy="175" r="56.0" fill="none" stroke="#d0d7de"/><circle cx="260" cy="175" r="84.0" fill="none" stroke="#d0d7de"/><circle cx="260" cy="175" r="112" fill="none" stroke="#d0d7de"/><line x1="260" y1="175" x2="260.0" y2="63.0" stroke="#d0d7de"/><text x="260.0" y="39.0" text-anchor="middle" dominant-baseline="middle" font-family="monospace" font-size="10" fill="#57606a">TypeScript</text><text x="260.0" y="51.0" text-anchor="middle" font-family="monospace" font-size="9" fill="#58A6FF">78</text><line x1="260" y1="175" x2="357.0" y2="119.0" stroke="#d0d7de"/><text x="377.8" y="107.0" text-anchor="start" dominant-baseline="middle" font-family="monospace" font-size="10" fill="#57606a">JavaScript</text><text x="377.8" y="119.0" text-anchor="start" font-family="monospace" font-size="9" fill="#58A6FF">70</text><line x1="260" y1="175" x2="357.0" y2="231.0" stroke="#d0d7de"/><text x="377.8" y="243.0" text-anchor="start" dominant-baseline="middle" font-family="monospace" font-size="10" fill="#57606a">Python</text><text x="377.8" y="255.0" text-anchor="start" font-family="monospace" font-size="9" fill="#58A6FF">58</text><line x1="260" y1="175" x2="260.0" y2="287.0" stroke="#d0d7de"/><text x="260.0" y="311.0" text-anchor="middle" dominant-baseline="middle" font-family="monospace" font-size="10" fill="#57606a">HTML</text><text x="260.0" y="323.0" text-anchor="middle" font-family="monospace" font-size="9" fill="#58A6FF">42</text><line x1="260" y1="175" x2="163.0" y2="231.0" stroke="#d0d7de"/><text x="142.2" y="243.0" text-anchor="end" dominant-baseline="middle" font-family="monospace" font-size="10" fill="#57606a">CSS</text><text x="142.2" y="255.0" text-anchor="end" font-family="monospace" font-size="9" fill="#58A6FF">38</text><line x1="260" y1="175" x2="163.0" y2="119.0" stroke="#d0d7de"/><text x="142.2" y="107.0" text-anchor="end" dominant-baseline="middle" font-family="monospace" font-size="10" fill="#57606a">Other</text><text x="142.2" y="119.0" text-anchor="end" font-family="monospace" font-size="9" fill="#58A6FF">28</text><polygon points="260.0,87.6 327.9,135.8 316.3,207.5 260.0,222.0 223.1,196.3 232.8,159.3" fill="#58A6FF" fill-opacity=".16" stroke="#58A6FF" stroke-width="2"/></svg>